# xmcd
# 
# Track frame offsets:
#     150
#     20900
#     42339
#     64901
# 
# Disc length: 1190
# 
# Revision: 0
# Processed by: cddbd v1.5.2PL0 Copyright (c) Steve Scherf et al.
# Submitted via: fre:ac v1.0.17
# 
DISCID=3504a404
DTITLE=Johnathan Kluth - tv noir sessions
DYEAR=2013
DGENRE=
TTITLE0=Putting Out Fires
TTITLE1=The Arms Of Another
TTITLE2=Owls And Hedgehogs
TTITLE3=You've Got The Sunshine
EXTD=
EXTT0=
EXTT1=
EXTT2=
EXTT3=
PLAYORDER=
